<svg width="80" height="76" viewBox="0 0 80 76" fill="none" xmlns="http://www.w3.org/2000/svg">
<path d="M51.5415 65.6504H68.2812C69.5756 65.6504 70.6249 64.601 70.6249 63.3066C70.6249 62.0123 69.5756 60.9629 68.2812 60.9629H51.5415C50.2471 60.9629 49.1978 62.0123 49.1978 63.3066C49.1978 64.601 50.2471 65.6504 51.5415 65.6504Z" fill="#CFDBFD"/>
<path d="M55.948 19.3568C57.2424 19.3568 58.2917 18.3074 58.2917 17.013V9.64209H68.2813C69.5757 9.64209 70.625 8.59271 70.625 7.29834C70.625 6.00396 69.5757 4.95459 68.2813 4.95459H55.948C54.6536 4.95459 53.6042 6.00396 53.6042 7.29834V17.013C53.6042 18.3074 54.6536 19.3568 55.948 19.3568Z" fill="#CFDBFD"/>
<path d="M65.9155 37.5073H77.6562C78.9505 37.5073 79.9999 36.4579 79.9999 35.1636C79.9999 33.8692 78.9505 32.8198 77.6562 32.8198H65.9155C64.6212 32.8198 63.5718 33.8692 63.5718 35.1636C63.5718 36.4579 64.6212 37.5073 65.9155 37.5073Z" fill="#CFDBFD"/>
<path d="M62.4656 48.6079H72.3267C73.621 48.6079 74.6704 47.5585 74.6704 46.2642C74.6704 44.9698 73.621 43.9204 72.3267 43.9204H62.4656C61.1712 43.9204 60.1218 44.9698 60.1218 46.2642C60.1218 47.5585 61.1712 48.6079 62.4656 48.6079Z" fill="#CFDBFD"/>
<path d="M72.9687 11.5579C75.3212 11.5579 77.2284 9.65082 77.2284 7.29826C77.2284 4.9457 75.3212 3.03857 72.9687 3.03857C70.6161 3.03857 68.709 4.9457 68.709 7.29826C68.709 9.65082 70.6161 11.5579 72.9687 11.5579Z" fill="#FFE370"/>
<path d="M72.9687 67.5662C75.3212 67.5662 77.2284 65.6591 77.2284 63.3066C77.2284 60.954 75.3212 59.0469 72.9687 59.0469C70.6161 59.0469 68.709 60.954 68.709 63.3066C68.709 65.6591 70.6161 67.5662 72.9687 67.5662Z" fill="#FFE370"/>
<path d="M65.9375 7.29834C65.9375 3.42131 69.0917 0.26709 72.9688 0.26709C76.8458 0.26709 80 3.42131 80 7.29834C80 11.1754 76.8458 14.3296 72.9688 14.3296C69.0917 14.3296 65.9375 11.1755 65.9375 7.29834ZM70.625 7.29834C70.625 8.59068 71.6764 9.64209 72.9688 9.64209C74.2611 9.64209 75.3125 8.59068 75.3125 7.29834C75.3125 6.006 74.2611 4.95459 72.9688 4.95459C71.6764 4.95459 70.625 6.006 70.625 7.29834Z" fill="#FFB54C"/>
<path d="M65.9375 63.3066C65.9375 59.4296 69.0917 56.2754 72.9688 56.2754C76.8458 56.2754 80 59.4296 80 63.3066C80 67.1837 76.8458 70.3379 72.9688 70.3379C69.0917 70.3379 65.9375 67.1837 65.9375 63.3066ZM70.625 63.3066C70.625 64.599 71.6764 65.6504 72.9688 65.6504C74.2611 65.6504 75.3125 64.599 75.3125 63.3066C75.3125 62.0143 74.2611 60.9629 72.9688 60.9629C71.6764 60.9629 70.625 62.0141 70.625 63.3066Z" fill="#FFB54C"/>
<path d="M28.4584 65.6504H11.7188C10.4244 65.6504 9.375 64.601 9.375 63.3066C9.375 62.0123 10.4244 60.9629 11.7188 60.9629H28.4584C29.7528 60.9629 30.8022 62.0123 30.8022 63.3066C30.8022 64.601 29.7528 65.6504 28.4584 65.6504Z" fill="#E8F1FD"/>
<path d="M24.052 19.3568C22.7577 19.3568 21.7083 18.3074 21.7083 17.013V9.64209H11.7188C10.4244 9.64209 9.375 8.59271 9.375 7.29834C9.375 6.00396 10.4244 4.95459 11.7188 4.95459H24.052C25.3464 4.95459 26.3958 6.00396 26.3958 7.29834V17.013C26.3958 18.3074 25.3464 19.3568 24.052 19.3568Z" fill="#E8F1FD"/>
<path d="M14.0844 37.5073H2.34375C1.04937 37.5073 0 36.4579 0 35.1636C0 33.8692 1.04937 32.8198 2.34375 32.8198H14.0844C15.3787 32.8198 16.4281 33.8692 16.4281 35.1636C16.4281 36.4579 15.3787 37.5073 14.0844 37.5073Z" fill="#E8F1FD"/>
<path d="M17.5344 48.6079H7.67334C6.37896 48.6079 5.32959 47.5585 5.32959 46.2642C5.32959 44.9698 6.37896 43.9204 7.67334 43.9204H17.5344C18.8288 43.9204 19.8782 44.9698 19.8782 46.2642C19.8782 47.5585 18.8288 48.6079 17.5344 48.6079Z" fill="#E8F1FD"/>
<path d="M7.03117 11.5579C9.38373 11.5579 11.2909 9.65082 11.2909 7.29826C11.2909 4.9457 9.38373 3.03857 7.03117 3.03857C4.67861 3.03857 2.77148 4.9457 2.77148 7.29826C2.77148 9.65082 4.67861 11.5579 7.03117 11.5579Z" fill="#FFEFB2"/>
<path d="M7.03117 67.5662C9.38373 67.5662 11.2909 65.6591 11.2909 63.3066C11.2909 60.954 9.38373 59.0469 7.03117 59.0469C4.67861 59.0469 2.77148 60.954 2.77148 63.3066C2.77148 65.6591 4.67861 67.5662 7.03117 67.5662Z" fill="#FFEFB2"/>
<path d="M7.03125 14.3296C3.15422 14.3296 0 11.1754 0 7.29834C0 3.42131 3.15422 0.26709 7.03125 0.26709C10.9083 0.26709 14.0625 3.42131 14.0625 7.29834C14.0625 11.1754 10.9083 14.3296 7.03125 14.3296ZM7.03125 4.95459C5.73891 4.95459 4.6875 6.006 4.6875 7.29834C4.6875 8.59068 5.73891 9.64209 7.03125 9.64209C8.32359 9.64209 9.375 8.59068 9.375 7.29834C9.375 6.006 8.32359 4.95459 7.03125 4.95459Z" fill="#FFE370"/>
<path d="M7.03125 70.3379C3.15422 70.3379 0 67.1837 0 63.3066C0 59.4296 3.15422 56.2754 7.03125 56.2754C10.9083 56.2754 14.0625 59.4296 14.0625 63.3066C14.0625 67.1837 10.9083 70.3379 7.03125 70.3379ZM7.03125 60.9629C5.73891 60.9629 4.6875 62.0143 4.6875 63.3066C4.6875 64.599 5.73891 65.6504 7.03125 65.6504C8.32359 65.6504 9.375 64.599 9.375 63.3066C9.375 62.0143 8.32359 60.9629 7.03125 60.9629Z" fill="#FFE370"/>
<path d="M65.0626 38.3504C62.3126 48.1676 55.7313 62.1316 40.0001 73.6598C27.4032 64.4457 18.9985 52.6504 15.0001 38.5691C12.7001 30.4676 12.5766 23.8066 12.6735 20.8504C28.811 15.7082 36.6735 10.216 40.0001 7.29883C43.3266 10.216 51.1891 15.7098 67.3298 20.8504C67.4298 23.7691 67.3157 30.3035 65.0626 38.3504Z" fill="#7D889E"/>
<path d="M65.0625 38.3504C62.3125 48.1676 55.7312 62.1316 40 73.6598V7.29883C43.3266 10.216 51.1891 15.7098 67.3297 20.8504C67.4297 23.7691 67.3156 30.3035 65.0625 38.3504Z" fill="#3B5998"/>
<path d="M41.4494 72.259L40.0001 70.51C28.6001 62.1709 20.9923 51.4943 17.3735 38.7506C15.2923 31.4178 15.1813 25.3896 15.2688 22.7146C29.8735 18.06 36.9891 13.0896 40.0001 10.449L41.4494 9.00824V6.94355L40.0001 4.75684C39.2501 4.75684 38.5766 5.11621 38.136 5.72246C37.8907 6.01934 32.2266 12.635 12.3438 18.7178C11.4532 18.9896 10.8079 19.7646 10.7016 20.6912C10.6626 21.0271 9.78913 29.0521 12.8032 39.8162C14.5688 46.1193 17.311 52.0725 20.9532 57.5115C25.4954 64.2959 31.4516 70.285 38.6594 75.3115C39.0626 75.5928 39.5313 75.7334 40.0001 75.7334L41.4494 73.8479V72.259Z" fill="#3B5998"/>
<path d="M41.3523 22.4223L40 20.499C34.4671 20.499 29.9656 25.0006 29.9656 30.5334V34.1631C29.9656 35.4568 31.0156 36.5068 32.3093 36.5068C33.6046 36.5068 34.6531 35.4568 34.6531 34.1631V30.5334C34.6531 27.585 37.0515 25.1865 40 25.1865L41.3523 23.6889V22.4223Z" fill="#404A80"/>
<path d="M67.1969 39.8162C65.4312 46.1193 62.6891 52.0725 59.0469 57.5115C54.5047 64.2959 48.5484 70.285 41.3406 75.3115C40.9375 75.5928 40.4687 75.7334 40 75.7334V70.51C54.2375 60.0756 60.1938 47.4381 62.6828 38.5522C64.7219 31.2693 64.825 25.3553 64.7344 22.7146C50.1266 18.0615 43.0109 13.0896 40 10.449V4.75684C40.75 4.75684 41.4234 5.11621 41.8641 5.72246C42.1094 6.01934 47.7734 12.635 67.6562 18.7178C68.5469 18.9896 69.1922 19.7646 69.2984 20.6912C69.3375 21.0271 70.2109 29.0521 67.1969 39.8162Z" fill="#453D83"/>
<path d="M50.0344 30.5334V34.1631C50.0344 35.4568 48.9844 36.5068 47.6906 36.5068C46.3953 36.5068 45.3469 35.4568 45.3469 34.1631V30.5334C45.3469 27.585 42.9484 25.1865 40 25.1865V20.499C45.5328 20.499 50.0344 25.0006 50.0344 30.5334Z" fill="#283366"/>
<path d="M42.0971 36.5062L39.9999 31.8193H31.3749C29.0187 31.8193 27.103 33.735 27.103 36.0912V49.5131C27.103 51.8693 29.0187 53.785 31.3749 53.785H39.9999L42.0971 48.1912V36.5062Z" fill="#FFE370"/>
<path d="M52.8969 36.0912V49.5131C52.8969 51.8693 50.9813 53.785 48.625 53.785H40V31.8193H48.625C50.9813 31.8193 52.8969 33.735 52.8969 36.0912Z" fill="#FFB54C"/>
<path d="M42.3438 41.6631V43.9412C42.3438 45.2365 41.2938 46.285 40 46.285C38.7063 46.285 37.6562 45.2365 37.6562 43.9412V41.6631C37.6562 40.3678 38.7063 39.3193 40 39.3193C41.2938 39.3193 42.3438 40.3676 42.3438 41.6631Z" fill="#404A80"/>
<path d="M42.3438 41.6631V43.9412C42.3438 45.2365 41.2937 46.285 40 46.285V39.3193C41.2937 39.3193 42.3438 40.3676 42.3438 41.6631Z" fill="#283366"/>
</svg>
