<svg width="60" height="34" viewBox="0 0 60 34" fill="none" xmlns="http://www.w3.org/2000/svg">
<path fill-rule="evenodd" clip-rule="evenodd" d="M52.2879 20.98C42.522 10.8391 32.5684 0.509766 29.3756 0.509766C26.3708 0.509766 16.4172 10.8391 6.65129 20.98H6.46359C6.46359 21.1684 6.65129 21.1684 6.65129 21.1684H6.83931C8.34156 20.2295 15.2903 14.9707 18.1074 14.9707C19.0466 14.9707 20.5488 15.5341 22.2391 16.473C19.9854 18.727 18.1074 20.7926 17.9197 20.9803C17.9197 21.1687 17.9197 21.1687 18.1074 21.1687C19.0466 20.6049 21.3003 18.9147 23.7417 17.4121C26.3704 19.1024 29.0002 20.9803 29.3752 21.1687H29.5633C29.939 20.9803 32.5681 19.1024 35.1975 17.4121C37.6389 18.9147 39.8926 20.6049 40.8311 21.1687C40.8311 21.1687 41.0191 21.1687 41.0191 20.9803C40.8311 20.7926 38.7654 18.727 36.512 16.473C38.2023 15.5345 39.8926 14.9707 40.8311 14.9707C43.6485 14.9707 50.5973 20.2295 52.0995 21.1684H52.2875C52.2875 21.1684 52.4752 21.1684 52.4752 20.98H52.2879V20.98ZM29.3752 3.8903C30.6901 3.8903 32.7561 4.82944 34.6341 5.95597C33.3195 6.33169 31.4416 7.83426 29.3752 9.71222C27.4973 7.83426 25.4316 6.33169 24.3048 5.95597C26.1827 4.82944 28.2487 3.8903 29.3752 3.8903V3.8903ZM23.7417 15.1584C21.8637 13.4682 19.7977 11.9659 18.4828 11.5902C20.5488 10.2756 22.4268 9.3365 23.7417 9.3365C24.6805 9.3365 26.3704 10.0876 28.061 11.0268C26.3704 12.5293 23.9294 15.1584 23.7417 15.1584ZM29.3752 20.7923C28.9998 20.4169 27.3096 18.539 25.2436 16.4726C26.9339 15.5341 28.4364 14.9704 29.3752 14.9704C30.5021 14.9704 32.0047 15.5338 33.6949 16.4726C31.6293 18.5393 29.9393 20.4172 29.3752 20.7923ZM35.1978 15.1584C35.0098 15.1584 32.5684 12.5293 30.8781 11.0268C32.5684 10.0876 34.259 9.3365 35.1978 9.3365C36.3246 9.3365 38.3903 10.2756 40.4563 11.5902C39.1414 11.9659 37.0758 13.4682 35.1978 15.1584ZM6.46359 31.31H2.33193L4.3976 27.9294L6.46359 31.31ZM0.265625 33.1876H1.20477L1.95589 31.8727H6.83899L7.59011 33.1876H8.34124L4.96102 27.178H3.83418L0.265625 33.1876V33.1876ZM15.8537 30.1825V27.9291H19.61C20.7365 27.9291 20.9245 28.1168 20.9245 28.6806V29.2437C20.9245 29.9951 20.5488 30.1825 19.7977 30.1825H15.8537V30.1825ZM15.1026 33.1876H15.8537V30.7462H19.7977C20.5491 30.7462 20.9245 30.9339 20.9245 31.8727V33.1876H21.6757V31.685C21.6757 31.1219 21.488 30.7462 20.7365 30.5585C21.3003 30.3702 21.8637 30.1825 21.8637 29.432V28.8683C21.8637 27.7417 21.488 27.178 19.7977 27.178H15.1026V33.1876V33.1876Z" fill="#3B5998"/>
<path d="M28.9998 33.1873H29.7509V27.1777H28.9998V33.1873Z" fill="#3B5998"/>
<path fill-rule="evenodd" clip-rule="evenodd" d="M43.2717 31.6853C43.2717 32.2491 43.084 32.4368 42.3328 32.4368H38.0135V30.3704H42.1451C42.8966 30.3704 43.2717 30.5588 43.2717 31.3099V31.6853ZM43.084 29.0562C43.084 29.62 42.5205 29.8077 42.1451 29.8077H38.0135V27.9297H42.1451C42.5209 27.9297 43.084 27.9297 43.084 28.4928V29.0562ZM37.2617 33.1879H42.3325C43.2713 33.1879 44.0231 32.8125 44.0231 31.873V31.1222C44.0231 30.3705 43.4597 29.995 42.8963 29.995C43.6477 29.995 43.8351 29.4319 43.8351 29.0562V28.4925C43.8351 27.9294 43.4597 27.1783 42.3325 27.1783H37.2617V33.1879ZM56.6058 31.3102H52.6621L54.7281 27.9297L56.6058 31.3102ZM50.5961 33.1879H51.535L52.2864 31.873H56.9815L57.7326 33.1879H58.6717L55.1035 27.1783H54.1644L50.5961 33.1879ZM58.296 27.9297C58.296 27.5543 58.6717 27.1783 59.0475 27.1783C59.6106 27.1783 59.7989 27.5543 59.7989 27.9297C59.7989 28.4928 59.6106 28.8685 59.0475 28.8685C58.6717 28.8685 58.296 28.4928 58.296 27.9297ZM58.1083 27.9297C58.1083 28.4928 58.4837 29.0562 59.0472 29.0562C59.6103 29.0562 59.986 28.4925 59.986 27.9297C59.986 27.5543 59.6099 26.9902 59.0472 26.9902C58.4837 26.9899 58.1083 27.5543 58.1083 27.9297ZM58.6717 28.4928H58.8595V28.1174H59.0475L59.4229 28.4928H59.6106L59.2352 28.1174C59.4229 28.1174 59.6106 27.9297 59.6106 27.742C59.6106 27.5543 59.4229 27.366 59.0475 27.366H58.6717V28.4928ZM58.8595 27.9297V27.5543H59.0475C59.2352 27.5543 59.4229 27.5543 59.4229 27.742C59.4229 27.9297 59.2352 27.9297 59.0475 27.9297H58.8595Z" fill="#3B5998"/>
</svg>
