<svg width="48" height="48" viewBox="0 0 48 48" fill="none" xmlns="http://www.w3.org/2000/svg">
<circle cx="24" cy="24" r="24" fill="#EEEEEC"/>
<path d="M31.9 14H15.1C14.5438 14.0023 14.0109 14.2243 13.6176 14.6176C13.2243 15.0109 13.0023 15.5438 13 16.1V32.9C13.0023 33.4562 13.2243 33.989 13.6176 34.3824C14.0109 34.7757 14.5438 34.9977 15.1 35H31.9C32.4562 34.9977 32.989 34.7757 33.3824 34.3824C33.7757 33.989 33.9977 33.4562 34 32.9V16.1C33.9977 15.5438 33.7757 15.0109 33.3824 14.6176C32.989 14.2243 32.4562 14.0023 31.9 14ZM19.1644 26.6569C19.6099 26.8599 20.1179 26.8777 20.5766 26.7062C21.0352 26.5347 21.4069 26.1881 21.61 25.7425H23.0625C22.8753 26.5095 22.4135 27.1814 21.7645 27.631C21.1154 28.0806 20.3242 28.2768 19.5403 28.1825C18.7564 28.0882 18.0342 27.71 17.5103 27.1193C16.9864 26.5286 16.6971 25.7664 16.6971 24.9769C16.6971 24.1873 16.9864 23.4251 17.5103 22.8345C18.0342 22.2438 18.7564 21.8655 19.5403 21.7712C20.3242 21.6769 21.1154 21.8732 21.7645 22.3228C22.4135 22.7724 22.8753 23.4442 23.0625 24.2113H21.61C21.4864 23.9399 21.2988 23.7026 21.0635 23.5195C20.8281 23.3365 20.5519 23.2131 20.2585 23.1601C19.9651 23.107 19.6632 23.1258 19.3786 23.2148C19.0941 23.3039 18.8353 23.4605 18.6245 23.6713C18.4136 23.8822 18.257 24.141 18.168 24.4255C18.0789 24.7101 18.0601 25.012 18.1132 25.3054C18.1662 25.5988 18.2896 25.875 18.4726 26.1104C18.6557 26.3457 18.893 26.5332 19.1644 26.6569ZM29.0912 27.3963C28.8166 27.6327 28.5027 27.8193 28.1637 27.9475C27.6792 28.1356 27.1563 28.2036 26.6398 28.1457C26.1232 28.0878 25.6284 27.9057 25.1975 27.615V27.9475H23.8763V18.6988H25.1888V22.295C25.6573 21.9782 26.1999 21.7883 26.7638 21.7438H27C27.657 21.7427 28.2984 21.9432 28.8379 22.3182C29.3773 22.6932 29.7888 23.2246 30.0167 23.8407C30.2447 24.4569 30.2782 25.1281 30.1127 25.7639C29.9472 26.3997 29.5907 26.9694 29.0912 27.3963ZM28.8961 24.976C28.9015 25.2211 28.8578 25.4648 28.7677 25.6927C28.6776 25.9207 28.5429 26.1284 28.3715 26.3036C28.2 26.4789 27.9953 26.6181 27.7693 26.7131C27.5434 26.8082 27.3007 26.8571 27.0556 26.8571C26.8104 26.8571 26.5677 26.8082 26.3418 26.7131C26.1158 26.6181 25.9111 26.4789 25.7397 26.3036C25.5682 26.1284 25.4335 25.9207 25.3434 25.6927C25.2533 25.4648 25.2097 25.2211 25.215 24.976C25.2255 24.4948 25.424 24.0368 25.768 23.7002C26.1121 23.3636 26.5742 23.1751 27.0556 23.1751C27.5369 23.1751 27.999 23.3636 28.3431 23.7002C28.6871 24.0368 28.8856 24.4948 28.8961 24.976Z" fill="#3B5998"/>
</svg>
