<svg width="48" height="48" viewBox="0 0 48 48" fill="none" xmlns="http://www.w3.org/2000/svg">
<circle cx="24" cy="24" r="24" fill="#EEEEEC"/>
<path d="M23.5 19.46C22.5032 19.46 21.5287 19.7556 20.6999 20.3094C19.8711 20.8632 19.2251 21.6503 18.8436 22.5713C18.4622 23.4922 18.3624 24.5056 18.5568 25.4833C18.7513 26.4609 19.2313 27.359 19.9362 28.0638C20.641 28.7687 21.5391 29.2487 22.5167 29.4432C23.4944 29.6376 24.5078 29.5378 25.4287 29.1564C26.3497 28.7749 27.1368 28.1289 27.6906 27.3001C28.2444 26.4713 28.54 25.4968 28.54 24.5C28.54 23.1633 28.009 21.8814 27.0638 20.9362C26.1186 19.991 24.8367 19.46 23.5 19.46ZM23.5 27.86C22.8355 27.86 22.1858 27.6629 21.6333 27.2937C21.0807 26.9245 20.6501 26.3998 20.3958 25.7858C20.1415 25.1719 20.0749 24.4963 20.2046 23.8445C20.3342 23.1927 20.6542 22.594 21.1241 22.1241C21.594 21.6542 22.1927 21.3342 22.8445 21.2046C23.4963 21.0749 24.1719 21.1415 24.7858 21.3958C25.3998 21.6501 25.9245 22.0807 26.2937 22.6333C26.6629 23.1858 26.86 23.8355 26.86 24.5C26.8572 25.3903 26.5023 26.2433 25.8728 26.8728C25.2433 27.5023 24.3903 27.8572 23.5 27.86ZM28.12 14H18.88C17.3205 14 15.8249 14.6195 14.7222 15.7222C13.6195 16.8249 13 18.3205 13 19.88V29.12C13 30.6795 13.6195 32.1751 14.7222 33.2778C15.8249 34.3805 17.3205 35 18.88 35H28.12C29.6795 35 31.1751 34.3805 32.2778 33.2778C33.3805 32.1751 34 30.6795 34 29.12V19.88C34 18.3205 33.3805 16.8249 32.2778 15.7222C31.1751 14.6195 29.6795 14 28.12 14ZM32.32 29.12C32.32 29.6716 32.2114 30.2177 32.0003 30.7273C31.7892 31.2368 31.4799 31.6998 31.0898 32.0898C30.6998 32.4799 30.2368 32.7892 29.7273 33.0003C29.2177 33.2114 28.6716 33.32 28.12 33.32H18.88C18.3284 33.32 17.7823 33.2114 17.2727 33.0003C16.7632 32.7892 16.3002 32.4799 15.9102 32.0898C15.5201 31.6998 15.2108 31.2368 14.9997 30.7273C14.7886 30.2177 14.68 29.6716 14.68 29.12V19.88C14.68 18.7661 15.1225 17.6978 15.9102 16.9102C16.6978 16.1225 17.7661 15.68 18.88 15.68H28.12C28.6716 15.68 29.2177 15.7886 29.7273 15.9997C30.2368 16.2108 30.6998 16.5201 31.0898 16.9102C31.4799 17.3002 31.7892 17.7632 32.0003 18.2727C32.2114 18.7823 32.32 19.3284 32.32 19.88V29.12ZM30.22 19.04C30.22 19.2892 30.1461 19.5328 30.0077 19.74C29.8692 19.9472 29.6724 20.1087 29.4422 20.2041C29.2119 20.2995 28.9586 20.3244 28.7142 20.2758C28.4698 20.2272 28.2453 20.1072 28.069 19.931C27.8928 19.7547 27.7728 19.5302 27.7242 19.2858C27.6756 19.0414 27.7005 18.7881 27.7959 18.5578C27.8913 18.3276 28.0528 18.1308 28.26 17.9923C28.4672 17.8539 28.7108 17.78 28.96 17.78C29.2942 17.78 29.6147 17.9127 29.851 18.149C30.0872 18.3853 30.22 18.7058 30.22 19.04Z" fill="#3B5998"/>
</svg>
