<svg width="48" height="48" viewBox="0 0 48 48" fill="none" xmlns="http://www.w3.org/2000/svg">
<circle cx="24" cy="24" r="24" fill="#EEEEEC"/>
<path d="M21.5469 18.4375C21.5469 18.6878 21.4726 18.9325 21.3336 19.1406C21.1945 19.3488 20.9968 19.511 20.7656 19.6068C20.5343 19.7026 20.2798 19.7276 20.0343 19.6788C19.7888 19.63 19.5633 19.5094 19.3863 19.3324C19.2093 19.1554 19.0888 18.9299 19.0399 18.6844C18.9911 18.4389 19.0162 18.1844 19.112 17.9532C19.2078 17.7219 19.37 17.5242 19.5781 17.3852C19.7862 17.2461 20.0309 17.1719 20.2812 17.1719C20.6169 17.1719 20.9388 17.3052 21.1762 17.5426C21.4135 17.7799 21.5469 18.1018 21.5469 18.4375ZM35.0469 14.6406V32.3594C35.0469 32.8069 34.8691 33.2361 34.5526 33.5526C34.2361 33.8691 33.8069 34.0469 33.3594 34.0469H15.6406C15.1931 34.0469 14.7638 33.8691 14.4474 33.5526C14.1309 33.2361 13.9531 32.8069 13.9531 32.3594V14.6406C13.9531 14.1931 14.1309 13.7638 14.4474 13.4474C14.7638 13.1309 15.1931 12.9531 15.6406 12.9531H33.3594C33.8069 12.9531 34.2361 13.1309 34.5526 13.4474C34.8691 13.7638 35.0469 14.1931 35.0469 14.6406ZM33.3594 32.3594V14.6406H15.6406V32.3594H33.3594ZM20.2812 20.9688C20.0575 20.9688 19.8429 21.0576 19.6846 21.2159C19.5264 21.3741 19.4375 21.5887 19.4375 21.8125V28.5625C19.4375 28.7863 19.5264 29.0009 19.6846 29.1591C19.8429 29.3174 20.0575 29.4062 20.2812 29.4062C20.505 29.4062 20.7196 29.3174 20.8779 29.1591C21.0361 29.0009 21.125 28.7863 21.125 28.5625V21.8125C21.125 21.5887 21.0361 21.3741 20.8779 21.2159C20.7196 21.0576 20.505 20.9688 20.2812 20.9688ZM26.6094 20.9688C25.8498 20.9687 25.1077 21.1965 24.4789 21.6227C24.4328 21.4202 24.3136 21.2419 24.1442 21.1218C23.9748 21.0017 23.7671 20.9483 23.5607 20.9718C23.3544 20.9953 23.164 21.0941 23.026 21.2492C22.8879 21.4043 22.8119 21.6049 22.8125 21.8125V28.5625C22.8125 28.7863 22.9014 29.0009 23.0596 29.1591C23.2179 29.3174 23.4325 29.4062 23.6562 29.4062C23.88 29.4062 24.0946 29.3174 24.2529 29.1591C24.4111 29.0009 24.5 28.7863 24.5 28.5625V24.7656C24.5 24.2062 24.7222 23.6697 25.1178 23.2741C25.5134 22.8785 26.0499 22.6562 26.6094 22.6562C27.1688 22.6562 27.7053 22.8785 28.1009 23.2741C28.4965 23.6697 28.7188 24.2062 28.7188 24.7656V28.5625C28.7188 28.7863 28.8076 29.0009 28.9659 29.1591C29.1241 29.3174 29.3387 29.4062 29.5625 29.4062C29.7863 29.4062 30.0009 29.3174 30.1591 29.1591C30.3174 29.0009 30.4062 28.7863 30.4062 28.5625V24.7656C30.4062 23.7586 30.0062 22.7929 29.2942 22.0808C28.5821 21.3688 27.6164 20.9688 26.6094 20.9688Z" fill="#3B5998"/>
</svg>
