<svg width="110" height="30" viewBox="0 0 110 30" fill="none" xmlns="http://www.w3.org/2000/svg">
<path fill-rule="evenodd" clip-rule="evenodd" d="M14.927 22.8718H9.77529V15.4835C9.77529 13.5182 9.30011 12.4332 7.74195 12.4339C6.25043 12.4339 5.36938 13.5182 5.36938 15.2803V22.8718H0.150391V8.50179H5.37004V9.99331C6.31907 8.70506 7.80993 8.09526 9.50471 8.09526C13.3688 8.09526 14.9276 10.8064 14.9276 14.1953V22.8718H14.927V22.8718ZM32.4147 15.6202C32.4147 19.8895 28.8232 23.279 24.6878 23.279C20.4179 23.279 16.893 20.0261 16.893 15.6188C16.893 11.3489 20.4852 8.09526 24.6199 8.09526C28.8898 8.09592 32.4147 11.2136 32.4147 15.6202ZM27.399 15.6195C27.3996 13.9934 26.5179 12.1626 24.6205 12.1626C22.8578 12.1626 21.9774 13.9934 21.9774 15.6195C21.9774 17.3143 22.8584 19.1444 24.6885 19.1444C26.5179 19.1444 27.399 17.3143 27.399 15.6195ZM50.5802 22.6013C50.5802 26.9399 47.5978 29.2438 42.7853 29.2438C39.803 29.2438 37.0918 28.3627 35.8036 27.617L37.4984 24.2287C38.7866 24.9059 40.4807 25.381 42.4461 25.381C44.7507 25.381 45.4285 24.1614 45.4285 22.7372V21.2457C44.6834 22.1947 43.1239 23.0771 41.0905 23.0771C37.0232 23.0758 34.3121 19.6196 34.3121 15.6202C34.3121 11.6215 37.0232 8.09659 41.0905 8.09659C42.7847 8.09659 44.6154 8.84234 45.4285 9.92733V8.50312H50.5802V22.6013V22.6013ZM45.4292 15.6868C45.4292 13.7221 44.2089 12.2986 42.4468 12.2986C40.7527 12.2986 39.4644 13.7221 39.4644 15.6868C39.4644 17.7215 40.7527 19.0084 42.4474 19.0084C44.2089 19.0084 45.4292 17.6535 45.4292 15.6868V15.6868ZM68.0006 22.8718H62.8489V21.3817C61.8999 22.6692 60.4097 23.2797 58.7142 23.2797C54.8508 23.2797 53.292 20.5686 53.292 17.111V8.50246H58.443V15.8914C58.443 17.8568 58.9175 18.9411 60.477 18.9411C61.9672 18.9411 62.8489 17.8568 62.8489 16.0267V8.50246H68.0006V22.8718V22.8718ZM84.3353 20.1607C82.5739 22.3307 80.8118 23.2797 78.0327 23.2797C73.4915 23.2797 70.1019 20.0254 70.1019 15.6868C70.1019 11.5521 73.4235 8.09592 78.0327 8.09526C80.4732 8.09526 82.3019 8.90899 83.8614 10.7391L80.8791 13.5182C80.0653 12.6371 79.1163 12.1626 78.0327 12.1626C76.2026 12.1626 74.9137 13.6541 74.9137 15.6868C74.9137 17.4496 76.1346 19.213 78.0327 19.213C79.3876 19.213 80.066 18.6705 80.8791 17.7215L84.3353 20.1607V20.1607ZM100.942 22.8718H95.7236V15.4835C95.7236 13.5182 95.2484 12.4339 93.6903 12.4339C92.1988 12.4339 91.3171 13.5175 91.3171 15.2803V22.8718H86.166V0.639648L91.3171 0.708296V9.99398C92.2661 8.70573 93.7576 8.09592 95.4524 8.09592C99.3158 8.09526 100.943 10.8071 100.943 14.1966L100.942 22.8718ZM103.856 22.8718L103.858 8.50179H109.009L109.008 22.8712H103.856V22.8718V22.8718Z" fill="#3B5998"/>
<path fill-rule="evenodd" clip-rule="evenodd" d="M109.235 4.11767C109.237 4.52746 109.157 4.93346 109.001 5.3123C108.844 5.69115 108.615 6.03537 108.325 6.32517C108.035 6.61497 107.691 6.84463 107.312 7.00094C106.933 7.15726 106.527 7.23714 106.118 7.23599C104.423 7.23599 103 5.81245 103 4.11834C102.999 3.70854 103.079 3.30255 103.235 2.92371C103.391 2.54486 103.621 2.20064 103.91 1.91084C104.2 1.62104 104.544 1.39138 104.923 1.23506C105.302 1.07875 105.708 0.998868 106.118 1.00001C107.88 1.00001 109.235 2.35557 109.235 4.11767Z" fill="#3B5998"/>
</svg>
