<svg width="126" height="29" viewBox="0 0 126 29" fill="none" xmlns="http://www.w3.org/2000/svg">
<path d="M9.24987 10.7557C9.27774 20.8279 9.27774 20.9674 9.48141 21.8779C10.3333 25.7805 12.1022 27.9827 14.9729 28.726C15.6767 28.9118 16.0564 28.9304 18.927 28.9676L22.094 29.0047V28.791C22.0848 28.6703 21.9088 27.388 21.6958 25.9291L21.2976 23.281L18.288 23.2253C15.0747 23.1696 14.8525 23.1416 14.0097 22.6398C13.0837 22.1008 12.1576 20.7628 11.7779 19.425C11.3797 18.0124 11.3521 17.4551 11.3521 8.80443V0.5625H9.21265L9.24987 10.7557Z" fill="#3B5998"/>
<path d="M11.8324 9.26889L11.8602 17.9847L12.1103 18.8952C12.2493 19.397 12.4714 20.0474 12.601 20.3355C12.8511 20.8745 13.5179 21.8409 13.6566 21.8409C13.6939 21.8409 13.7864 21.4784 13.8513 21.0231C13.9531 20.3912 13.9901 18.1241 14.0086 10.384L14.0456 0.5625H11.8047L11.8324 9.26889Z" fill="#3B5998"/>
<path d="M31.7711 7.89451C28.3727 8.22911 25.6686 9.76212 24.2702 12.1503C23.4739 13.5159 23.1591 14.9191 23.2332 16.7681C23.3164 18.9425 23.9091 20.4292 25.2796 21.8973C27.5391 24.3504 31.6045 25.4189 35.5495 24.6199C38.7258 23.9786 41.2261 22.0367 42.2724 19.4072C43.041 17.4837 43.004 14.8449 42.1798 12.9679C40.8556 9.92952 37.6515 8.04314 33.5307 7.86674C32.975 7.84816 32.1787 7.85735 31.7711 7.89451V7.89451ZM34.2251 11.6299C36.5959 12.1781 38.2256 14.6312 37.8553 17.0749C37.5682 18.9611 36.2347 20.4943 34.4105 21.0425C33.7344 21.2468 32.3083 21.2468 31.6322 21.0425C29.5023 20.4106 28.1133 18.5522 28.1133 16.3316C28.1133 14.2129 29.6228 12.2152 31.6415 11.6763C32.2249 11.5183 33.6324 11.4905 34.2251 11.6299V11.6299ZM44.6895 16.127V24.2575L47.2176 24.2389L49.7363 24.211L49.7641 16.0993L49.7826 7.99679H44.6895V16.127ZM52.8293 11.9086C51.3847 14.0551 50.2085 15.8576 50.2272 15.9039C50.2364 15.9505 51.4866 17.846 52.996 20.1226L55.737 24.2575H58.7837C60.4507 24.2575 61.8212 24.2389 61.8212 24.211C61.8212 24.1924 60.4507 22.3805 58.7837 20.1969C57.1078 18.0134 55.6815 16.127 55.6168 16.025C55.5055 15.8392 55.6908 15.5509 58.2651 12.0386C59.7839 9.94809 61.0711 8.19195 61.1081 8.11764C61.173 8.01536 60.6914 7.99679 58.3208 7.99679H55.4593L52.8293 11.9086ZM63.2286 13.7299C63.2658 19.2584 63.275 19.5001 63.4603 20.1877C64.1733 22.7335 65.8494 24.0809 68.9516 24.5919C70.1555 24.7963 72.2577 24.852 73.5725 24.7313C77.3045 24.3598 79.3326 22.9938 80.129 20.2991C80.2771 19.8067 80.2956 19.1563 80.3235 13.8691L80.3511 7.99679H74.9709V19.0354L74.6653 19.6207C74.119 20.6895 73.1282 21.2376 71.7761 21.2283C70.4426 21.2097 69.3221 20.5501 68.8499 19.5001L68.6275 19.0075L68.609 13.5253L68.5813 8.04314L65.8956 8.01536L63.2009 7.99679L63.2286 13.7299ZM83.1201 16.127V24.2575H87.1947L87.2038 18.515C87.2132 14.6032 87.2409 12.8563 87.3058 13.0143C87.3613 13.1445 88.1577 15.7091 89.0838 18.7288L90.7598 24.211L92.9546 24.2389L95.1402 24.2575L95.2419 23.9601C95.3809 23.4954 96.6033 19.5464 97.6589 16.127C98.1866 14.4358 98.6406 12.9957 98.6868 12.9214C98.7329 12.8471 98.7702 15.3653 98.7702 18.515V24.2575H102.845V7.99659L99.2609 8.01536L95.6679 8.04314L94.3344 12.7634C93.6028 15.3559 92.9824 17.4651 92.9639 17.4465C92.936 17.4093 90.2505 8.09906 90.2505 8.02456C90.2505 8.00598 88.6486 7.99679 86.6854 7.99679H83.1201V16.127ZM111.67 8.10826C111.568 8.25688 104.141 24.1087 104.141 24.1924C104.141 24.2295 105.364 24.2575 106.864 24.2575H109.586L110.466 22.0089C110.957 20.7638 111.401 19.6393 111.448 19.4907L111.55 19.2398L114.855 19.2584L118.152 19.2863L118.606 20.4478C118.856 21.0888 119.291 22.2041 119.578 22.9381L120.097 24.2575H122.81C124.31 24.2575 125.533 24.2295 125.533 24.2018C125.533 24.1644 125.097 23.2167 124.56 22.0831C124.033 20.9588 122.329 17.335 120.773 14.0365L117.958 8.04314L114.855 8.01536C112.448 7.99679 111.744 8.02456 111.67 8.10826V8.10826ZM115.893 13.4418C116.402 14.7704 116.828 15.8855 116.828 15.9227C116.828 15.9598 115.93 15.9878 114.828 15.9878C113.726 15.9878 112.846 15.9505 112.865 15.9041C113.781 13.4975 114.846 10.9052 114.893 10.9515C114.92 10.9887 115.374 12.1038 115.893 13.4418H115.893Z" fill="#3B5998"/>
<path d="M8.52749 22.779C7.68475 23.1785 7.19399 23.2342 4.36969 23.2342H1.75822L1.34153 26.0403C1.10999 27.5921 0.933994 28.8836 0.952509 28.921C0.998894 29.0045 6.45317 28.9859 7.2774 28.893C8.64794 28.7444 10.3426 27.9825 11.0555 27.2112L11.2686 26.9696L10.8889 26.477C10.3888 25.8174 9.65733 24.3028 9.39811 23.3737C9.28683 22.9648 9.16657 22.6024 9.1387 22.5746C9.11083 22.5375 8.83329 22.6302 8.52749 22.779Z" fill="#3B5998"/>
</svg>
